<?xml version="1.0" encoding="utf-8"?>
<!-- Generator: Adobe Illustrator 24.0.0, SVG Export Plug-In . SVG Version: 6.00 Build 0)  -->
<svg version="1.1" id="Layer_1" xmlns="http://www.w3.org/2000/svg" xmlns:xlink="http://www.w3.org/1999/xlink" x="0px" y="0px"
	 viewBox="0 0 50 50" style="enable-background:new 0 0 50 50;" xml:space="preserve">
<style type="text/css">
	.st0{fill:#EF4650;}
</style>
<g>
	<path class="st0" d="M45.2,16.59c0,0-1.02-0.62-1.76,0l-0.97,1.09l-1.2-0.93L41,16.85l-0.18,0.1l-1.02,0.41l-1.39,0.52l-0.28,0.1
		l-0.18,0.21l-4.07,5.58h-0.09l-3.42,4.55c0,0-0.09,0-0.18-0.1l-0.74,1.65h-0.28l-6.65-10.34l-5.27,0.1v17.27h4.71V25.85l5.73,8.89
		h3.05l9.33-14.58c0,0,0.65-0.52,1.2-0.21l0.65,0.83h4.16l1.39,0.93l1.25,0.16L45.2,16.59z M40.71,17.22
		c0.1-0.04,0.2,0.02,0.23,0.13s-0.02,0.23-0.12,0.26c-0.1,0.04-0.2-0.02-0.23-0.13C40.56,17.37,40.61,17.26,40.71,17.22z
		 M38.12,18.26c0.1-0.04,0.2,0.02,0.23,0.13c0.03,0.11-0.02,0.23-0.12,0.26c-0.1,0.04-0.2-0.02-0.23-0.13
		C37.97,18.41,38.02,18.29,38.12,18.26z M38.08,21.35c0.1,0,0.18,0.09,0.18,0.21c0,0.11-0.08,0.21-0.18,0.21
		c-0.1,0-0.18-0.09-0.18-0.21C37.9,21.44,37.98,21.35,38.08,21.35z M41.18,17.99c-0.33,0.21-1,0.41-1.29,0.62
		c-0.14,0.1-0.46,0.52-0.46,0.52l-0.74,0.72c0,0-0.08,1.47-0.09,1.96c0,0.21-0.37,0.41-0.37,0.41c-0.37,0.1-0.65-0.21-0.65-0.21
		v-0.83h-0.09l-6.38,7.96c-0.18,0.1-0.09-0.31-0.09-0.31l3.33-4.45l-0.09-0.21l3.33-4.55c0.09-0.1,0.09,0.1,0.09,0.1v1.96
		c-0.09,0.52,0.46,0.41,0.46,0.41c0.28,0,0.37-0.52,0.37-0.52c0.09-0.1,0.09-2.9,0.09-2.9c0.92,0,1.76-0.52,1.76-0.52
		c0.55-0.1,0.83-0.41,0.83-0.41c0.46-0.72-0.28-0.83-0.28-0.83c0.28-0.21,0.41,0.08,0.46,0.21C41.55,17.57,41.35,17.88,41.18,17.99z
		"/>
	<polygon class="st0" points="37.35,20.31 37.44,20.93 34.66,24.35 34.57,24.24 	"/>
	<path class="st0" d="M40.3,20.31h0.83c0,0,0.18,0,0.18,0.1v16.44h-4.71V26.41L40.3,20.31z"/>
</g>
<g>
	<path class="st0" d="M1.29,36.91v-18.1h6.59c2.02,0,3.57,0.37,4.66,1.11c1.09,0.74,1.63,1.78,1.63,3.13c0,0.98-0.33,1.83-0.99,2.56
		c-0.66,0.73-1.5,1.24-2.53,1.53v0.05c1.29,0.16,2.32,0.64,3.09,1.43c0.77,0.79,1.16,1.75,1.16,2.89c0,1.66-0.59,2.97-1.78,3.95
		c-1.19,0.97-2.81,1.46-4.86,1.46H1.29z M5.37,21.81v4.29h1.79c0.84,0,1.5-0.2,1.99-0.61c0.48-0.41,0.73-0.97,0.73-1.69
		c0-1.33-0.99-1.99-2.98-1.99H5.37z M5.37,29.13v4.77h2.21c0.94,0,1.68-0.22,2.22-0.66c0.53-0.44,0.8-1.04,0.8-1.79
		c0-0.72-0.26-1.29-0.79-1.7c-0.53-0.41-1.26-0.62-2.2-0.62H5.37z"/>
</g>
</svg>
